<?xml version="1.0" encoding="utf-8"?>
<!-- Generator: Adobe Illustrator 16.0.0, SVG Export Plug-In . SVG Version: 6.00 Build 0)  -->
<!DOCTYPE svg PUBLIC "-//W3C//DTD SVG 1.1//EN" "http://www.w3.org/Graphics/SVG/1.1/DTD/svg11.dtd">
<svg version="1.1" id="logo" xmlns="http://www.w3.org/2000/svg" xmlns:xlink="http://www.w3.org/1999/xlink" x="0px" y="0px"
	 width="600px" height="600px" viewBox="0 0 600 600" enable-background="new 0 0 600 600" xml:space="preserve">
<path fill="none" stroke="#2196F3" stroke-width="30" stroke-linecap="round" stroke-miterlimit="10" d="M271.702,460.612
	c-64.326-75.064-105.417-170.628-112.13-275.543v-1.922c0-78.841,63.915-142.754,142.757-142.754
	c78.837,0,142.751,63.914,142.751,142.754v1.42c-0.613,10.724-1.584,21.351-2.905,31.87"/>
<path fill="none" stroke="#F44336" stroke-width="30" stroke-linecap="round" stroke-miterlimit="10" d="M212.196,259.649
	c96.887-19.647,200.364-9.021,295.28,36.188l1.679,0.938c68.865,38.377,93.584,125.324,55.205,194.188
	c-38.38,68.867-125.325,93.59-194.193,55.203l-1.24-0.689c-9.065-5.753-17.875-11.78-26.419-18.05"/>
<path fill="none" stroke="#4CAF50" stroke-width="30" stroke-linecap="round" stroke-miterlimit="10" d="M420.497,314.046
	c-35.091,92.425-99.289,174.263-188.176,230.409l-1.692,0.92c-69.205,37.761-155.923,12.267-193.687-56.941
	c-37.759-69.209-12.267-155.928,56.944-193.688l1.246-0.682c9.708-4.598,19.503-8.833,29.37-12.714"/>
</svg>
